<?xml version="1.0" encoding="UTF-8"?>
<svg xmlns="http://www.w3.org/2000/svg" viewBox="0 0 512 512">
  <path d="m 360.18165,89.09663 c 2.31326,-4.048407 5.0746,-8.450148 8.283,-13.207487 3.65949,-5.424091 7.52656,-10.848182 11.60118,-16.272272 4.07464,-5.425241 8.85682,-11.003211 14.34556,-16.733891 5.48874,-5.731829 11.14414,-10.95191 16.96518,-15.659098 11.47643,-9.416657 21.41405,-16.170848 29.81381,-20.2648481 8.39974,-4.0940005 17.33939,-6.14100146 26.81994,-6.14100146 4.98976,12.07684656 16.25862,43.13974156 13.84658,93.18753256 -1.59872,33.173715 -3.80021,58.320145 -6.60445,75.441525 23.27422,32.85233 36.66774,73.99063 36.66774,123.14829 0,155.05118 -114.38022,218.83299 -255.47559,218.83299 -141.09537,0 -255.47558247,-52.38428 -255.47558247,-218.83299 0,-49.15766 13.39350247,-90.29596 36.66772647,-123.14829 C 34.832503,152.32571 32.631022,127.17928 31.032302,94.005565 28.620249,43.957774 39.88912,12.894879 44.878877,0.81803244 c 9.480547,0 18.420194,2.04700096 26.81995,6.14100146 8.399756,4.0940001 18.337366,10.8481911 29.813813,20.2648481 5.82104,4.707188 11.47642,9.927269 16.96516,15.659098 5.48874,5.73183 10.27092,11.30865 14.34556,16.733891 4.07464,5.42409 7.9417,10.848181 11.60119,16.273423 3.20841,4.756188 5.96973,9.157929 8.28299,13.206336 31.69994,-10.182562 66.80288,-15.334266 103.73706,-15.334266 36.90524,0 71.98124,5.143725 103.73705,15.334266 z m -199.5404,258.207 c -8.8189,0 -15.96723,8.16407 -15.96723,18.23608 0,37.73273 32.27377,61.5468 63.86891,61.5468 14.64693,0 29.69903,-2.77417 41.68842,-10.46068 2.18053,-1.39849 4.26125,-2.96793 6.21325,-4.70492 1.95199,1.73699 4.03271,3.30643 6.21324,4.70492 11.98939,7.68651 27.04149,10.46068 41.68842,10.46068 31.59516,0 63.86891,-23.81407 63.86891,-61.5468 0,-10.07201 -7.14832,-18.23608 -15.96723,-18.23608 -8.81889,0 -15.96721,8.16407 -15.96721,18.23608 0,10.10735 -10.61823,25.07463 -31.93447,25.07463 -11.80875,0 -20.70749,-2.36271 -26.05451,-5.79224 -4.51474,-2.89385 -5.87993,-5.87544 -5.87993,-10.16433 0,-10.07202 -7.14833,-18.2361 -15.96722,-18.2361 -8.81889,0 -15.96721,8.16408 -15.96721,18.2361 0,4.28889 -1.36521,7.27048 -5.87993,10.16433 -5.34704,3.42953 -14.24578,5.79224 -26.05453,5.79224 -21.31624,0 -31.93445,-14.96728 -31.93445,-25.07463 0,-10.07201 -7.14833,-18.23608 -15.96723,-18.23608 z m 15.96723,-91.18041 c 0,-20.14291 -14.29764,-36.47217 -31.93446,-36.47217 -17.63679,0 -31.93443,16.32926 -31.93443,36.47217 0,20.14289 14.29764,36.47216 31.93443,36.47216 17.63682,0 31.93446,-16.32927 31.93446,-36.47216 z m 191.60669,36.47216 c 17.63679,0 31.93443,-16.32927 31.93443,-36.47216 0,-20.14291 -14.29764,-36.47217 -31.93443,-36.47217 -17.6368,0 -31.93444,16.32926 -31.93444,36.47217 0,20.14289 14.29764,36.47216 31.93444,36.47216 z"/>
</svg>