<svg xmlns="http://www.w3.org/2000/svg" viewBox="0 0 512 512"><path d="M269.9 74.7c78.4 0 141.9 63.5 141.9 141.9V355.7c0 39.2-31.7 71-70.9 71H171.1c-39.2 0-70.9-31.8-70.9-71V216.6c0-78.4 63.5-141.9 141.9-141.9ZM125.8 275.3v80.4c0 24.3 19.1 44.2 43.1 45.3l2.2.1H340.9c24.3 0 44.1-19.2 45.3-43.2v-2.2-80c-12 9.4-30.2 15.6-54.4 15.9h-3.1H183.4c-25.6 0-45-6.2-57.6-16.3Zm144.1-175H242.1c-63.2 0-114.6 50.4-116.3 113.2v3.1c1.2 32.5 19.4 49 54.6 49.4h3H328.7c4 0 7.8-.1 11.3-.3l5.1-.3c27.3-2.5 41-18.8 41.1-48.8 0-63.2-50.4-114.7-113.2-116.3Zm39.4 71.3c8.9 0 16 7.1 16 16v19.2c0 8.8-7.1 16-16 16s-16-7.2-16-16V187.6c0-8.9 7.2-16 16-16Zm-106.6 0c8.8 0 16 7.1 16 16v19.2c0 8.8-7.2 16-16 16s-16-7.2-16-16V187.6c0-8.9 7.1-16 16-16ZM450 222.1c6.6 0 12.1 5.1 12.7 11.5l.1 1.3v96c0 7.1-5.7 12.8-12.8 12.8-6.6 0-12.1-5-12.7-11.5l-.1-1.3v-96c0-7 5.7-12.8 12.8-12.8Zm-388 0c6.6 0 12.1 5.1 12.7 11.5l.1 1.3v96c0 7.1-5.7 12.8-12.8 12.8-6.6 0-12.1-5-12.7-11.5l-.1-1.3v-96c0-7 5.7-12.8 12.8-12.8Z"/></svg>