<svg viewBox="0 0 445.5 445.5" xmlns="http://www.w3.org/2000/svg"><path d="m384.3 201.3 5.4-49.3c3.9-35.2 3.9-70.7 0-105.8l-4.5-41.2c-.4-4-4.9-6.3-8.4-4.3-15.7 9.2-54.1 36-95.6 98.3z" fill="#846e5f"></path><path d="m301.5 97.1c27.9-39.4 53.4-62.1 69.9-74.1l2.7 24.8c3.7 34 3.7 68.4 0 102.4l-1.9 17.1z" fill="#e8d8ca"></path><path d="m70.8 201.3-5.4-49.3c-3.9-35.2-3.9-70.7 0-105.8l4.5-41.2c.4-4 4.9-6.3 8.4-4.3 15.7 9.2 54.1 36 95.6 98.3z" fill="#846e5f"></path><path d="m153.6 97.1c-27.8-39.4-53.4-62-69.9-74.1l-2.7 24.8c-3.7 34-3.7 68.4 0 102.4l1.9 17.1z" fill="#e8d8ca"></path><path d="m321.1 200.3-21-20.9-21 20.9c-1.3 1.3-2.6 2.6-3.8 4-6.8-11-15-21.3-24.5-30.9l-30.2-30.2-30.2 30.2c-8.7 8.7-16.3 18.2-22.7 28.1-.4-.4-.8-.8-1.2-1.2l-20.9-20.9-20.9 20.9c-46.4 46.4-46.4 121.6 0 168l20.9 21 14.7-14.7c7.8 14.7 17.9 28.5 30.2 40.8l30.2 30.2 30.2-30.2c13.2-13.2 23.7-27.9 31.7-43.7l17.5 17.5 21-21c46.4-46.3 46.4-121.5 0-167.9z" fill="#cec3bc"></path><path d="m160.6 322.5-111.9-121.5 80.3-95c23.3-27.6 57.5-43.5 93.6-43.5 36.1 0 70.3 15.9 93.6 43.5l80.2 95.1-111.9 121.4c-15.9 17.3-38.4 27.1-61.9 27.1-23.6 0-46-9.8-62-27.1z" fill="#ffebd9"></path><path d="m129 106-80.3 95 71.7 77.8c114.7-156 102.1-216.3 102.1-216.3-36 0-70.3 15.9-93.5 43.5z" fill="#a08d80"></path><path d="m316.6 105.5 80.2 95.1-71.7 77.8c-114.7-156-102.1-216.3-102.1-216.3 36.1 0 70.3 15.9 93.6 43.4z" fill="#a08d80"></path><path d="m179.9 291.2c13.5 5.5 28.3 8.5 43.7 8.5 16.4 0 31.9-3.4 46.1-9.5v-31h-89.8z" fill="#f8bb8c"></path><path d="m252.2 231.3c-2.4-.2-4.7-.1-7 .2-14.7 2-29.7 2-44.5 0-2.3-.3-4.6-.4-7-.2-16.5 1.2-29.9 14.6-31 31.1-1.4 19.6 14.2 36 33.5 36 10.9 0 20.6-5.2 26.7-13.2 6.1 8 15.8 13.2 26.7 13.2 19.3 0 34.9-16.3 33.5-36-1.1-16.5-14.4-29.9-30.9-31.1z" fill="#f9dac0"></path><g><path d="m223 280.7c-1.1 0-1.9-.9-1.9-1.9v-23.5c0-1.1.9-1.9 1.9-1.9 1.1 0 1.9.9 1.9 1.9v23.5c0 1.1-.9 1.9-1.9 1.9z" fill="#333"></path></g><path d="m240.1 239.2-14.1 14.6c-1.7 1.7-4.4 1.7-6.1 0l-14.1-14.6c-2.6-2.7-.7-7.2 3.1-7.2h28.3c3.6 0 5.6 4.5 2.9 7.2z" fill="#ffab9f"></path><g fill="#756254"><path d="m140.2 144.9c1.9.1 3.5-1.5 3.6-3.4s-1.5-3.5-3.4-3.6c-17.3-.4-39.7 11.5-59.3 24.8l-20.1 23.9c4.3-3.5 9.1-7.2 14.2-11 20.6 14.7 45.5 28.9 64.5 28.9h.7c1.9 0 3.5-1.6 3.4-3.6s-1.6-3.4-3.6-3.4c-16.7.3-39.5-12.5-59-26.3 19.3-13.6 41.8-26.3 58.4-26.3z"></path><path d="m363 161.5c-18.8-12.6-40-23.6-56.7-23.6-.2 0-.5 0-.7 0-1.9 0-3.5 1.6-3.4 3.6 0 1.9 1.6 3.4 3.5 3.4h.1.6c16.6 0 39.1 12.7 58.4 26.3-19.3 13.6-41.8 26.3-58.4 26.3-.2 0-.4 0-.6 0-1.9 0-3.5 1.5-3.6 3.4s1.5 3.5 3.4 3.6h.7c19 0 43.9-14.3 64.5-28.9 4.1 3 8.1 6.1 11.7 9z"></path></g><path d="m312.8 164.5c-37.7-1.4-47.3 21.5-49.8 34.1 5.8 10.6 17 17.8 29.9 17.8 18.8 0 34-15.2 34-34 0-6.6-1.3-11.8-4.6-17.1-2.4.2-6-.7-9.5-.8z" fill="#fff"></path><path d="m312.8 164.5c-30.9-1.1-42.9 14-47.6 26.4 3.7 11.8 14.7 20.5 27.7 20.5 16 0 29-13 29-29 0-6.7-2.3-12.9-6.1-17.8-1-.1-1.9-.1-3-.1z" fill="#ffe7a4"></path><path d="m321.1 161.9c-2.3.2-5.1.2-8.2.1-41.6-1.5-50.6 25.7-52.6 37.5-.2 1.4.7 2.6 2.1 2.9h.4c1.2 0 2.3-.9 2.5-2.1 1.2-7 4.3-16.6 12.7-23.7-.7 1.8-1.1 3.7-1.1 5.7 0 8.8 7.2 16 16 16s16-7.2 16-16c0-6.6-4-12.3-9.7-14.7 3.1-.5 6.6-.7 10.3-.7 1 0 2.1 0 3.2.1 3.3.1 6.2.1 8.7-.1 1.4-.1 2.4-1.3 2.3-2.7-.1-1.3-1.3-2.4-2.6-2.3z" fill="#333"></path><path d="m133.1 164.5c37.7-1.4 47.3 21.5 49.8 34.1-5.8 10.6-17 17.8-29.9 17.8-18.8 0-34-15.2-34-34 0-6.6 1.3-11.8 4.6-17.1 2.4.2 6-.7 9.5-.8z" fill="#fff"></path><path d="m133.1 164.5c30.9-1.1 42.9 14 47.6 26.4-3.7 11.8-14.7 20.5-27.7 20.5-16 0-29-13-29-29 0-6.7 2.3-12.9 6.1-17.8 1-.1 1.9-.1 3-.1z" fill="#ffe7a4"></path><path d="m185.6 199.5c-1.9-11.8-11-39-52.6-37.5-3.1.1-5.8.1-8.2-.1-1.4-.1-2.6.9-2.7 2.3s.9 2.6 2.3 2.7c2.5.2 5.4.2 8.7.1 5-.2 9.4.1 13.5.7-5.7 2.5-9.7 8.1-9.7 14.7 0 8.8 7.2 16 16 16s16-7.2 16-16c0-2-.4-3.9-1.1-5.7 8.4 7.1 11.6 16.6 12.7 23.6.2 1.2 1.3 2.1 2.5 2.1h.4c1.5-.3 2.4-1.5 2.2-2.9z" fill="#333"></path></svg>