<svg id="Layer_1" viewBox="0 0 512 512" version="1.1" xmlns="http://www.w3.org/2000/svg">
  <g id="g12" transform="matrix(0.73621471,0,0,0.73621471,58.981217,62.681343)" style="stroke-width: 0.999969; stroke-miterlimit: 4; stroke-dasharray: none;">
    <path d="M393.7 311.7c-17.2-10.7-33.5-20.8-44.1-39-29.3-50.3-45.4-80.7-93.5-80.7s-64.2 30.4-93.6 80.7c-10.7 18.2-27 28.3-44.3 39.1-19.8 12.3-40.3 25-49.1 50-3.4 9-5.2 18.6-5.1 28.3 0 40.7 32.5 73.9 68.4 73.9s83.3-18.1 123.8-18.1S343.3 464 379.7 464s68.3-33.2 68.3-73.9c0-9.7-1.7-19.3-5.2-28.3-8.8-25.1-29.3-37.8-49.1-50.1z" fill="#000000" style="fill: rgb(238, 201, 0); fill-opacity: 1; stroke-width: 0.999969; stroke-miterlimit: 4; stroke-dasharray: none;" id="path2"/>
    <ellipse cx="72" cy="216" rx="56" ry="72" fill="#000000" style="fill: rgb(238, 201, 0); fill-opacity: 1; stroke-width: 0.999969; stroke-miterlimit: 4; stroke-dasharray: none;" id="ellipse4"/>
    <ellipse cx="184" cy="120" rx="56" ry="72" fill="#000000" style="fill: rgb(238, 201, 0); fill-opacity: 1; stroke-width: 0.999969; stroke-miterlimit: 4; stroke-dasharray: none;" id="ellipse6"/>
    <ellipse cx="328" cy="120" rx="56" ry="72" fill="#000000" style="fill: rgb(238, 201, 0); fill-opacity: 1; stroke-width: 0.999969; stroke-miterlimit: 4; stroke-dasharray: none;" id="ellipse8"/>
    <ellipse cx="440" cy="216" rx="56" ry="72" fill="#000000" style="fill: rgb(238, 201, 0); fill-opacity: 1; stroke-width: 0.999969; stroke-miterlimit: 4; stroke-dasharray: none;" id="ellipse10"/>
  </g>
  <circle style="opacity: 1; fill: rgb(255, 255, 0); fill-opacity: 0; stroke: rgb(238, 201, 0); stroke-width: 29.9853; stroke-miterlimit: 4; stroke-dasharray: none; stroke-opacity: 1;" id="path1027" cx="256.49435" cy="255.75601" r="239.4241"/>
</svg>